<?xml version="1.0" encoding="UTF-8"?>
<!--!
Font Awesome Free 7.3.0 by @fontawesome - https://fontawesome.com
License - https://fontawesome.com/license/free (Icons: CC BY 4.0, Fonts: SIL OFL 1.1, Code: MIT License)
Copyright 2026 Fonticons, Inc.
-->
<svg xmlns="http://www.w3.org/2000/svg" style="display: none;">

<symbol id="chevron-right" viewBox="0 0 320 512">
<path d="M311.1 233.4c12.5 12.5 12.5 32.8 0 45.3l-192 192c-12.5 12.5-32.8 12.5-45.3 0s-12.5-32.8 0-45.3L243.2 256 73.9 86.6c-12.5-12.5-12.5-32.8 0-45.3s32.8-12.5 45.3 0l192 192z"/>
</symbol>

<symbol id="angles-right" viewBox="0 0 448 512">
<path d="M439.1 278.6c12.5-12.5 12.5-32.8 0-45.3l-160-160c-12.5-12.5-32.8-12.5-45.3 0s-12.5 32.8 0 45.3L371.2 256 233.9 393.4c-12.5 12.5-12.5 32.8 0 45.3s32.8 12.5 45.3 0l160-160zm-352 160l160-160c12.5-12.5 12.5-32.8 0-45.3l-160-160c-12.5-12.5-32.8-12.5-45.3 0s-12.5 32.8 0 45.3L179.2 256 41.9 393.4c-12.5 12.5-12.5 32.8 0 45.3s32.8 12.5 45.3 0z"/>
</symbol>

<symbol id="chevron-left" viewBox="0 0 320 512">
<path d="M9.4 233.4c-12.5 12.5-12.5 32.8 0 45.3l192 192c12.5 12.5 32.8 12.5 45.3 0s12.5-32.8 0-45.3L77.3 256 246.6 86.6c12.5-12.5 12.5-32.8 0-45.3s-32.8-12.5-45.3 0l-192 192z"/>
</symbol>

<symbol id="list" viewBox="0 0 512 512">
<path d="M40 48C26.7 48 16 58.7 16 72l0 48c0 13.3 10.7 24 24 24l48 0c13.3 0 24-10.7 24-24l0-48c0-13.3-10.7-24-24-24L40 48zM192 64c-17.7 0-32 14.3-32 32s14.3 32 32 32l288 0c17.7 0 32-14.3 32-32s-14.3-32-32-32L192 64zm0 160c-17.7 0-32 14.3-32 32s14.3 32 32 32l288 0c17.7 0 32-14.3 32-32s-14.3-32-32-32l-288 0zm0 160c-17.7 0-32 14.3-32 32s14.3 32 32 32l288 0c17.7 0 32-14.3 32-32s-14.3-32-32-32l-288 0zM16 232l0 48c0 13.3 10.7 24 24 24l48 0c13.3 0 24-10.7 24-24l0-48c0-13.3-10.7-24-24-24l-48 0c-13.3 0-24 10.7-24 24zM40 368c-13.3 0-24 10.7-24 24l0 48c0 13.3 10.7 24 24 24l48 0c13.3 0 24-10.7 24-24l0-48c0-13.3-10.7-24-24-24l-48 0z"/>
</symbol>

<symbol id="gears" viewBox="0 0 640 512">
<path d="M415.9 210.5c12.2-3.3 25 2.5 30.5 13.8L465 261.9c10.3 1.4 20.4 4.2 29.9 8.1l35-23.3c10.5-7 24.4-5.6 33.3 3.3l19.2 19.2c8.9 8.9 10.3 22.9 3.3 33.3l-23.3 34.9c1.9 4.7 3.6 9.6 5 14.7 1.4 5.1 2.3 10.1 3 15.2l37.7 18.6c11.3 5.6 17.1 18.4 13.8 30.5l-7 26.2c-3.3 12.1-14.6 20.3-27.2 19.5l-42-2.7c-6.3 8.1-13.6 15.6-21.9 22l2.7 41.9c.8 12.6-7.4 24-19.5 27.2l-26.2 7c-12.2 3.3-24.9-2.5-30.5-13.8l-18.6-37.6c-10.3-1.4-20.4-4.2-29.9-8.1l-35 23.3c-10.5 7-24.4 5.6-33.3-3.3l-19.2-19.2c-8.9-8.9-10.3-22.8-3.3-33.3l23.3-35c-1.9-4.7-3.6-9.6-5-14.7s-2.3-10.2-3-15.2l-37.7-18.6c-11.3-5.6-17-18.4-13.8-30.5l7-26.2c3.3-12.1 14.6-20.3 27.2-19.5l41.9 2.7c6.3-8.1 13.6-15.6 21.9-22l-2.7-41.8c-.8-12.6 7.4-24 19.5-27.2l26.2-7zM448.4 340a44 44 0 1 0 .1 88 44 44 0 1 0 -.1-88zM224.9-45.5l26.2 7c12.1 3.3 20.3 14.7 19.5 27.2l-2.7 41.8c8.3 6.4 15.6 13.8 21.9 22l42-2.7c12.5-.8 23.9 7.4 27.2 19.5l7 26.2c3.2 12.1-2.5 24.9-13.8 30.5l-37.7 18.6c-.7 5.1-1.7 10.2-3 15.2s-3.1 10-5 14.7l23.3 35c7 10.5 5.6 24.4-3.3 33.3L307.3 262c-8.9 8.9-22.8 10.3-33.3 3.3L239 242c-9.5 3.9-19.6 6.7-29.9 8.1l-18.6 37.6c-5.6 11.3-18.4 17-30.5 13.8l-26.2-7c-12.2-3.3-20.3-14.7-19.5-27.2l2.7-41.9c-8.3-6.4-15.6-13.8-21.9-22l-42 2.7c-12.5 .8-23.9-7.4-27.2-19.5l-7-26.2c-3.2-12.1 2.5-24.9 13.8-30.5l37.7-18.6c.7-5.1 1.7-10.1 3-15.2 1.4-5.1 3-10 5-14.7L55.1 46.5c-7-10.5-5.6-24.4 3.3-33.3L77.6-6c8.9-8.9 22.8-10.3 33.3-3.3l35 23.3c9.5-3.9 19.6-6.7 29.9-8.1l18.6-37.6c5.6-11.3 18.3-17 30.5-13.8zM192.4 84a44 44 0 1 0 0 88 44 44 0 1 0 0-88z"/>
</symbol>

<symbol id="xmark" viewBox="0 0 384 512">
<path d="M55.1 73.4c-12.5-12.5-32.8-12.5-45.3 0s-12.5 32.8 0 45.3L147.2 256 9.9 393.4c-12.5 12.5-12.5 32.8 0 45.3s32.8 12.5 45.3 0L192.5 301.3 329.9 438.6c12.5 12.5 32.8 12.5 45.3 0s12.5-32.8 0-45.3L237.8 256 375.1 118.6c12.5-12.5 12.5-32.8 0-45.3s-32.8-12.5-45.3 0L192.5 210.7 55.1 73.4z"/>
</symbol>
</svg>